<svg xmlns="http://www.w3.org/2000/svg" width="1600" height="900" viewBox="0 0 1600 900" role="img" aria-labelledby="title desc">
  <title id="title">LangGraph and Qianxuesen integration flow</title>
  <desc id="desc">A flow diagram showing LangGraph as the carrier layer and Qianxuesen as the deterministic control layer.</desc>
  <defs>
    <linearGradient id="bg" x1="0" y1="0" x2="1" y2="1">
      <stop offset="0" stop-color="#f7fbff"/>
      <stop offset="0.55" stop-color="#f8fbf2"/>
      <stop offset="1" stop-color="#fff8ed"/>
    </linearGradient>
    <filter id="shadow" x="-20%" y="-20%" width="140%" height="140%">
      <feDropShadow dx="0" dy="10" stdDeviation="12" flood-color="#1f2937" flood-opacity="0.14"/>
    </filter>
    <marker id="arrow" markerWidth="14" markerHeight="14" refX="11" refY="7" orient="auto" markerUnits="strokeWidth">
      <path d="M2 2 L12 7 L2 12 Z" fill="#334155"/>
    </marker>
    <style>
      .title { font: 700 44px Arial, Helvetica, sans-serif; fill: #111827; }
      .subtitle { font: 400 22px Arial, Helvetica, sans-serif; fill: #475569; }
      .lane-label { font: 700 22px Arial, Helvetica, sans-serif; letter-spacing: 0.5px; }
      .box-title { font: 700 24px Arial, Helvetica, sans-serif; fill: #111827; }
      .box-text { font: 400 18px Arial, Helvetica, sans-serif; fill: #475569; }
      .small { font: 700 16px Arial, Helvetica, sans-serif; fill: #334155; }
      .rule { font: 700 19px Arial, Helvetica, sans-serif; fill: #7f1d1d; }
      .chip { font: 700 15px Arial, Helvetica, sans-serif; fill: #0f172a; }
      .line { stroke: #334155; stroke-width: 4; fill: none; marker-end: url(#arrow); }
      .dash { stroke: #64748b; stroke-width: 3; stroke-dasharray: 8 8; fill: none; marker-end: url(#arrow); }
    </style>
  </defs>

  <rect width="1600" height="900" fill="url(#bg)"/>

  <text x="80" y="82" class="title">LangGraph carries the loop. Qianxuesen owns the learning.</text>
  <text x="82" y="120" class="subtitle">The bridge is a safe interface: graph mechanics in, deterministic control stays with Misa.</text>

  <rect x="70" y="170" width="1460" height="150" rx="18" fill="#e0f2fe" stroke="#0284c7" stroke-width="2" opacity="0.72"/>
  <text x="95" y="205" class="lane-label" fill="#075985">LANGGRAPH CARRIER LAYER</text>
  <text x="95" y="238" class="box-text">State container, checkpoint history, interrupt/resume, graph edges, execution trace</text>
  <rect x="1170" y="195" width="135" height="42" rx="21" fill="#bae6fd"/>
  <text x="1202" y="222" class="chip">State</text>
  <rect x="1320" y="195" width="160" height="42" rx="21" fill="#bae6fd"/>
  <text x="1345" y="222" class="chip">Checkpoint</text>
  <rect x="1170" y="250" width="135" height="42" rx="21" fill="#bae6fd"/>
  <text x="1193" y="277" class="chip">Interrupt</text>
  <rect x="1320" y="250" width="160" height="42" rx="21" fill="#bae6fd"/>
  <text x="1348" y="277" class="chip">Resume</text>

  <rect x="70" y="360" width="1460" height="260" rx="18" fill="#ecfdf5" stroke="#059669" stroke-width="2" opacity="0.78"/>
  <text x="95" y="396" class="lane-label" fill="#065f46">QIANXUESEN CONTROL LAYER</text>
  <text x="95" y="430" class="box-text">Deterministic distill, route, damping, repair tickets, work-order handoff, human boundary</text>

  <g filter="url(#shadow)">
    <rect x="105" y="475" width="190" height="96" rx="14" fill="#ffffff" stroke="#94a3b8" stroke-width="2"/>
    <text x="130" y="510" class="box-title">Evidence</text>
    <text x="130" y="540" class="box-text">redacted refs</text>
  </g>
  <g filter="url(#shadow)">
    <rect x="350" y="475" width="190" height="96" rx="14" fill="#ffffff" stroke="#10b981" stroke-width="2"/>
    <text x="382" y="510" class="box-title">Distill</text>
    <text x="382" y="540" class="box-text">local signals</text>
  </g>
  <g filter="url(#shadow)">
    <rect x="595" y="475" width="190" height="96" rx="14" fill="#ffffff" stroke="#10b981" stroke-width="2"/>
    <text x="628" y="510" class="box-title">Route</text>
    <text x="617" y="540" class="box-text">memory / skill / case</text>
  </g>
  <g filter="url(#shadow)">
    <rect x="840" y="475" width="210" height="96" rx="14" fill="#ffffff" stroke="#10b981" stroke-width="2"/>
    <text x="870" y="510" class="box-title">Repair Ticket</text>
    <text x="870" y="540" class="box-text">local work queue</text>
  </g>
  <g filter="url(#shadow)">
    <rect x="1105" y="475" width="210" height="96" rx="14" fill="#ffffff" stroke="#10b981" stroke-width="2"/>
    <text x="1138" y="510" class="box-title">Work Order</text>
    <text x="1138" y="540" class="box-text">handoff packet</text>
  </g>

  <path class="line" d="M295 523 H340"/>
  <path class="line" d="M540 523 H585"/>
  <path class="line" d="M785 523 H830"/>
  <path class="line" d="M1050 523 H1095"/>

  <path class="dash" d="M1210 475 C1210 405 1205 305 1210 265"/>
  <text x="1228" y="405" class="small">State + checkpoint carry the evidence</text>

  <g filter="url(#shadow)">
    <rect x="1045" y="665" width="290" height="112" rx="16" fill="#fff7ed" stroke="#f97316" stroke-width="2"/>
    <text x="1070" y="703" class="box-title">LangGraph Interrupt</text>
    <text x="1070" y="734" class="box-text">repair/work order stops here</text>
    <text x="1070" y="762" class="box-text">resume needs human decision</text>
  </g>
  <path class="line" d="M1210 571 V655"/>

  <g filter="url(#shadow)">
    <rect x="1370" y="665" width="145" height="112" rx="16" fill="#ffffff" stroke="#f97316" stroke-width="2"/>
    <text x="1394" y="706" class="box-title">Human</text>
    <text x="1392" y="737" class="box-text">approve</text>
    <text x="1392" y="765" class="box-text">hold / reject</text>
  </g>
  <path class="line" d="M1335 721 H1360"/>

  <g filter="url(#shadow)">
    <rect x="450" y="665" width="500" height="112" rx="16" fill="#fef2f2" stroke="#ef4444" stroke-width="2"/>
    <text x="475" y="703" class="box-title">LLM Agent Boundary</text>
    <text x="475" y="736" class="rule">May explain, draft, or execute approved local work.</text>
    <text x="475" y="764" class="rule">Must not route learning, write memory, publish, or touch VPS.</text>
  </g>
  <path class="dash" d="M690 571 V655"/>

  <rect x="95" y="810" width="1390" height="52" rx="26" fill="#111827"/>
  <text x="135" y="844" style="font: 700 20px Arial, Helvetica, sans-serif; fill: #ffffff;">
    Result: LangGraph gives durable workflow mechanics; Qianxuesen keeps the control-theory brain and human boundary.
  </text>
</svg>
