<svg xmlns="http://www.w3.org/2000/svg" viewBox="0 0 1500 2180" width="1500" height="2180" role="img" aria-labelledby="title desc">
<title id="title">Misa Cybernetic Evolution Layer v0.28 architecture</title>
<desc id="desc">Two evidence lanes feed a measurement quality gate, L0-L4 cybernetic control, L3 feedback, and human bounded decision outputs.</desc>
<defs>
  <marker id="arrow" markerWidth="10" markerHeight="10" refX="8" refY="5" orient="auto">
    <path d="M1,1 L9,5 L1,9 Z" fill="#53657f"/>
  </marker>
  <marker id="arrowBlue" markerWidth="10" markerHeight="10" refX="8" refY="5" orient="auto">
    <path d="M1,1 L9,5 L1,9 Z" fill="#38bdf8"/>
  </marker>
  <marker id="arrowRed" markerWidth="10" markerHeight="10" refX="8" refY="5" orient="auto">
    <path d="M1,1 L9,5 L1,9 Z" fill="#fb3b64"/>
  </marker>
  <marker id="arrowAmber" markerWidth="10" markerHeight="10" refX="8" refY="5" orient="auto">
    <path d="M1,1 L9,5 L1,9 Z" fill="#f59e0b"/>
  </marker>
  <radialGradient id="gateGlow" cx="50%" cy="50%" r="70%">
    <stop offset="0%" stop-color="#fb3b64" stop-opacity="0.35"/>
    <stop offset="100%" stop-color="#fb3b64" stop-opacity="0"/>
  </radialGradient>
</defs>
<rect width="1500" height="2180" fill="#07111f"/>
<g opacity="0.18">
<line x1="0" y1="0" x2="0" y2="2180" stroke="#20314a" stroke-width="1"/>
<line x1="50" y1="0" x2="50" y2="2180" stroke="#20314a" stroke-width="1"/>
<line x1="100" y1="0" x2="100" y2="2180" stroke="#20314a" stroke-width="1"/>
<line x1="150" y1="0" x2="150" y2="2180" stroke="#20314a" stroke-width="1"/>
<line x1="200" y1="0" x2="200" y2="2180" stroke="#20314a" stroke-width="1"/>
<line x1="250" y1="0" x2="250" y2="2180" stroke="#20314a" stroke-width="1"/>
<line x1="300" y1="0" x2="300" y2="2180" stroke="#20314a" stroke-width="1"/>
<line x1="350" y1="0" x2="350" y2="2180" stroke="#20314a" stroke-width="1"/>
<line x1="400" y1="0" x2="400" y2="2180" stroke="#20314a" stroke-width="1"/>
<line x1="450" y1="0" x2="450" y2="2180" stroke="#20314a" stroke-width="1"/>
<line x1="500" y1="0" x2="500" y2="2180" stroke="#20314a" stroke-width="1"/>
<line x1="550" y1="0" x2="550" y2="2180" stroke="#20314a" stroke-width="1"/>
<line x1="600" y1="0" x2="600" y2="2180" stroke="#20314a" stroke-width="1"/>
<line x1="650" y1="0" x2="650" y2="2180" stroke="#20314a" stroke-width="1"/>
<line x1="700" y1="0" x2="700" y2="2180" stroke="#20314a" stroke-width="1"/>
<line x1="750" y1="0" x2="750" y2="2180" stroke="#20314a" stroke-width="1"/>
<line x1="800" y1="0" x2="800" y2="2180" stroke="#20314a" stroke-width="1"/>
<line x1="850" y1="0" x2="850" y2="2180" stroke="#20314a" stroke-width="1"/>
<line x1="900" y1="0" x2="900" y2="2180" stroke="#20314a" stroke-width="1"/>
<line x1="950" y1="0" x2="950" y2="2180" stroke="#20314a" stroke-width="1"/>
<line x1="1000" y1="0" x2="1000" y2="2180" stroke="#20314a" stroke-width="1"/>
<line x1="1050" y1="0" x2="1050" y2="2180" stroke="#20314a" stroke-width="1"/>
<line x1="1100" y1="0" x2="1100" y2="2180" stroke="#20314a" stroke-width="1"/>
<line x1="1150" y1="0" x2="1150" y2="2180" stroke="#20314a" stroke-width="1"/>
<line x1="1200" y1="0" x2="1200" y2="2180" stroke="#20314a" stroke-width="1"/>
<line x1="1250" y1="0" x2="1250" y2="2180" stroke="#20314a" stroke-width="1"/>
<line x1="1300" y1="0" x2="1300" y2="2180" stroke="#20314a" stroke-width="1"/>
<line x1="1350" y1="0" x2="1350" y2="2180" stroke="#20314a" stroke-width="1"/>
<line x1="1400" y1="0" x2="1400" y2="2180" stroke="#20314a" stroke-width="1"/>
<line x1="1450" y1="0" x2="1450" y2="2180" stroke="#20314a" stroke-width="1"/>
<line x1="1500" y1="0" x2="1500" y2="2180" stroke="#20314a" stroke-width="1"/>
<line x1="0" y1="0" x2="1500" y2="0" stroke="#20314a" stroke-width="1"/>
<line x1="0" y1="50" x2="1500" y2="50" stroke="#20314a" stroke-width="1"/>
<line x1="0" y1="100" x2="1500" y2="100" stroke="#20314a" stroke-width="1"/>
<line x1="0" y1="150" x2="1500" y2="150" stroke="#20314a" stroke-width="1"/>
<line x1="0" y1="200" x2="1500" y2="200" stroke="#20314a" stroke-width="1"/>
<line x1="0" y1="250" x2="1500" y2="250" stroke="#20314a" stroke-width="1"/>
<line x1="0" y1="300" x2="1500" y2="300" stroke="#20314a" stroke-width="1"/>
<line x1="0" y1="350" x2="1500" y2="350" stroke="#20314a" stroke-width="1"/>
<line x1="0" y1="400" x2="1500" y2="400" stroke="#20314a" stroke-width="1"/>
<line x1="0" y1="450" x2="1500" y2="450" stroke="#20314a" stroke-width="1"/>
<line x1="0" y1="500" x2="1500" y2="500" stroke="#20314a" stroke-width="1"/>
<line x1="0" y1="550" x2="1500" y2="550" stroke="#20314a" stroke-width="1"/>
<line x1="0" y1="600" x2="1500" y2="600" stroke="#20314a" stroke-width="1"/>
<line x1="0" y1="650" x2="1500" y2="650" stroke="#20314a" stroke-width="1"/>
<line x1="0" y1="700" x2="1500" y2="700" stroke="#20314a" stroke-width="1"/>
<line x1="0" y1="750" x2="1500" y2="750" stroke="#20314a" stroke-width="1"/>
<line x1="0" y1="800" x2="1500" y2="800" stroke="#20314a" stroke-width="1"/>
<line x1="0" y1="850" x2="1500" y2="850" stroke="#20314a" stroke-width="1"/>
<line x1="0" y1="900" x2="1500" y2="900" stroke="#20314a" stroke-width="1"/>
<line x1="0" y1="950" x2="1500" y2="950" stroke="#20314a" stroke-width="1"/>
<line x1="0" y1="1000" x2="1500" y2="1000" stroke="#20314a" stroke-width="1"/>
<line x1="0" y1="1050" x2="1500" y2="1050" stroke="#20314a" stroke-width="1"/>
<line x1="0" y1="1100" x2="1500" y2="1100" stroke="#20314a" stroke-width="1"/>
<line x1="0" y1="1150" x2="1500" y2="1150" stroke="#20314a" stroke-width="1"/>
<line x1="0" y1="1200" x2="1500" y2="1200" stroke="#20314a" stroke-width="1"/>
<line x1="0" y1="1250" x2="1500" y2="1250" stroke="#20314a" stroke-width="1"/>
<line x1="0" y1="1300" x2="1500" y2="1300" stroke="#20314a" stroke-width="1"/>
<line x1="0" y1="1350" x2="1500" y2="1350" stroke="#20314a" stroke-width="1"/>
<line x1="0" y1="1400" x2="1500" y2="1400" stroke="#20314a" stroke-width="1"/>
<line x1="0" y1="1450" x2="1500" y2="1450" stroke="#20314a" stroke-width="1"/>
<line x1="0" y1="1500" x2="1500" y2="1500" stroke="#20314a" stroke-width="1"/>
<line x1="0" y1="1550" x2="1500" y2="1550" stroke="#20314a" stroke-width="1"/>
<line x1="0" y1="1600" x2="1500" y2="1600" stroke="#20314a" stroke-width="1"/>
<line x1="0" y1="1650" x2="1500" y2="1650" stroke="#20314a" stroke-width="1"/>
<line x1="0" y1="1700" x2="1500" y2="1700" stroke="#20314a" stroke-width="1"/>
<line x1="0" y1="1750" x2="1500" y2="1750" stroke="#20314a" stroke-width="1"/>
<line x1="0" y1="1800" x2="1500" y2="1800" stroke="#20314a" stroke-width="1"/>
<line x1="0" y1="1850" x2="1500" y2="1850" stroke="#20314a" stroke-width="1"/>
<line x1="0" y1="1900" x2="1500" y2="1900" stroke="#20314a" stroke-width="1"/>
<line x1="0" y1="1950" x2="1500" y2="1950" stroke="#20314a" stroke-width="1"/>
<line x1="0" y1="2000" x2="1500" y2="2000" stroke="#20314a" stroke-width="1"/>
<line x1="0" y1="2050" x2="1500" y2="2050" stroke="#20314a" stroke-width="1"/>
<line x1="0" y1="2100" x2="1500" y2="2100" stroke="#20314a" stroke-width="1"/>
<line x1="0" y1="2150" x2="1500" y2="2150" stroke="#20314a" stroke-width="1"/>
</g>
<g>
<rect x="510" y="58" width="480" height="70" rx="4" fill="#0f1b2d" stroke="#38bdf8" stroke-width="1.5" opacity="1"/>
<text x="750" y="88" text-anchor="middle" fill="#f8fafc" font-family="Inter, Segoe UI, Arial, sans-serif" font-size="17" font-weight="750">Misa Cybernetic Evolution Layer v0.28</text>
<text x="750" y="112" text-anchor="middle" fill="#9ca3af" font-family="Inter, Segoe UI, Arial, sans-serif" font-size="13" font-weight="500" font-style="italic">measurement-first control loop for Hermes-style agents</text>
</g>
<g>
<rect x="70" y="170" width="980" height="420" rx="2" fill="rgba(15,27,45,0.56)" stroke="#53657f" stroke-width="1.2" opacity="0.95"/>
<text x="88" y="194" text-anchor="start" fill="#38bdf8" font-family="Inter, Segoe UI, Arial, sans-serif" font-size="15" font-weight="800" letter-spacing="1.2">SIGNAL INTAKE - two real evidence lanes</text>
</g>
<g>
<rect x="110" y="230" width="360" height="310" rx="2" fill="rgba(15,27,45,0.56)" stroke="#38bdf8" stroke-width="1.2" opacity="0.95"/>
<text x="128" y="254" text-anchor="start" fill="#38bdf8" font-family="Inter, Segoe UI, Arial, sans-serif" font-size="15" font-weight="800" letter-spacing="1.2">Lane A - Qianxuesen window distillation</text>
</g>
<g>
<rect x="145" y="275" width="290" height="58" rx="4" fill="#0b2a45" stroke="#38bdf8" stroke-width="1.5" opacity="1"/>
<text x="290" y="305" text-anchor="middle" fill="#f8fafc" font-family="Inter, Segoe UI, Arial, sans-serif" font-size="15" font-weight="750">Redacted session windows</text>
<text x="290" y="329" text-anchor="middle" fill="#9ca3af" font-family="Inter, Segoe UI, Arial, sans-serif" font-size="13" font-weight="500" font-style="italic">local refs only</text>
</g>
<g>
<rect x="170" y="370" width="240" height="72" rx="4" fill="#0b2a45" stroke="#38bdf8" stroke-width="1.5" opacity="1"/>
<text x="290" y="400" text-anchor="middle" fill="#f8fafc" font-family="Inter, Segoe UI, Arial, sans-serif" font-size="15" font-weight="750">Source ledger</text>
<text x="290" y="424" text-anchor="middle" fill="#9ca3af" font-family="Inter, Segoe UI, Arial, sans-serif" font-size="12" font-weight="500" font-style="italic">retrieval trace</text>
<text x="290" y="441" text-anchor="middle" fill="#9ca3af" font-family="Inter, Segoe UI, Arial, sans-serif" font-size="12" font-weight="500" font-style="italic">Hermes refs</text>
</g>
<g>
<rect x="145" y="480" width="290" height="58" rx="4" fill="#0b2a45" stroke="#38bdf8" stroke-width="1.5" opacity="1"/>
<text x="290" y="510" text-anchor="middle" fill="#f8fafc" font-family="Inter, Segoe UI, Arial, sans-serif" font-size="15" font-weight="750">Distill + map</text>
<text x="290" y="534" text-anchor="middle" fill="#9ca3af" font-family="Inter, Segoe UI, Arial, sans-serif" font-size="13" font-weight="500" font-style="italic">segments -&gt; signals</text>
</g>
<line x1="290" y1="333" x2="290" y2="370" stroke="#38bdf8" stroke-width="1.8" marker-end="url(#arrowBlue)"/>
<line x1="290" y1="442" x2="290" y2="480" stroke="#38bdf8" stroke-width="1.8" marker-end="url(#arrowBlue)"/>
<g>
<rect x="520" y="230" width="490" height="310" rx="2" fill="rgba(15,27,45,0.56)" stroke="#a78bfa" stroke-width="1.2" opacity="0.95"/>
<text x="538" y="254" text-anchor="start" fill="#a78bfa" font-family="Inter, Segoe UI, Arial, sans-serif" font-size="15" font-weight="800" letter-spacing="1.2">Lane B - Hermes runtime logs and model I/O</text>
</g>
<g>
<rect x="550" y="275" width="190" height="58" rx="4" fill="#22183a" stroke="#a78bfa" stroke-width="1.5" opacity="1"/>
<text x="645" y="305" text-anchor="middle" fill="#f8fafc" font-family="Inter, Segoe UI, Arial, sans-serif" font-size="15" font-weight="750">Runtime logs</text>
<text x="645" y="329" text-anchor="middle" fill="#9ca3af" font-family="Inter, Segoe UI, Arial, sans-serif" font-size="13" font-weight="500" font-style="italic">pre/post tool_call</text>
</g>
<g>
<rect x="790" y="275" width="190" height="58" rx="4" fill="#22183a" stroke="#a78bfa" stroke-width="1.5" opacity="1"/>
<text x="885" y="305" text-anchor="middle" fill="#f8fafc" font-family="Inter, Segoe UI, Arial, sans-serif" font-size="15" font-weight="750">API boundary hooks</text>
<text x="885" y="329" text-anchor="middle" fill="#9ca3af" font-family="Inter, Segoe UI, Arial, sans-serif" font-size="13" font-weight="500" font-style="italic">pre/post api_request</text>
</g>
<g>
<rect x="550" y="405" width="190" height="72" rx="4" fill="#22183a" stroke="#a78bfa" stroke-width="1.5" opacity="1"/>
<text x="645" y="435" text-anchor="middle" fill="#f8fafc" font-family="Inter, Segoe UI, Arial, sans-serif" font-size="15" font-weight="750">Action monitor</text>
<text x="645" y="459" text-anchor="middle" fill="#9ca3af" font-family="Inter, Segoe UI, Arial, sans-serif" font-size="12" font-weight="500" font-style="italic">failure-after-repeat</text>
<text x="645" y="476" text-anchor="middle" fill="#9ca3af" font-family="Inter, Segoe UI, Arial, sans-serif" font-size="12" font-weight="500" font-style="italic">query entropy</text>
</g>
<g>
<rect x="790" y="405" width="190" height="72" rx="4" fill="#22183a" stroke="#a78bfa" stroke-width="1.5" opacity="1"/>
<text x="885" y="435" text-anchor="middle" fill="#f8fafc" font-family="Inter, Segoe UI, Arial, sans-serif" font-size="15" font-weight="750">Model I/O tap</text>
<text x="885" y="459" text-anchor="middle" fill="#9ca3af" font-family="Inter, Segoe UI, Arial, sans-serif" font-size="12" font-weight="500" font-style="italic">context bytes</text>
<text x="885" y="476" text-anchor="middle" fill="#9ca3af" font-family="Inter, Segoe UI, Arial, sans-serif" font-size="12" font-weight="500" font-style="italic">hashes only</text>
</g>
<line x1="645" y1="333" x2="645" y2="405" stroke="#a78bfa" stroke-width="1.8" marker-end="url(#arrow)"/>
<line x1="885" y1="333" x2="885" y2="405" stroke="#a78bfa" stroke-width="1.8" marker-end="url(#arrow)"/>
<g>
<rect x="1110" y="170" width="310" height="620" rx="2" fill="rgba(42,11,11,0.78)" stroke="#fb3b64" stroke-width="1.2" opacity="0.95"/>
<text x="1128" y="194" text-anchor="start" fill="#fb3b64" font-family="Inter, Segoe UI, Arial, sans-serif" font-size="15" font-weight="800" letter-spacing="1.2">BLOCKED BY DEFAULT</text>
</g>
<text x="1150" y="235" text-anchor="start" fill="#fb3b64" font-family="Inter, Segoe UI, Arial, sans-serif" font-size="18" font-weight="800">-</text>
<text x="1175" y="235" text-anchor="start" fill="#fecaca" font-family="Inter, Segoe UI, Arial, sans-serif" font-size="14" font-weight="500">memory writes</text>
<text x="1150" y="283" text-anchor="start" fill="#fb3b64" font-family="Inter, Segoe UI, Arial, sans-serif" font-size="18" font-weight="800">-</text>
<text x="1175" y="283" text-anchor="start" fill="#fecaca" font-family="Inter, Segoe UI, Arial, sans-serif" font-size="14" font-weight="500">skill install / publish</text>
<text x="1150" y="331" text-anchor="start" fill="#fb3b64" font-family="Inter, Segoe UI, Arial, sans-serif" font-size="18" font-weight="800">-</text>
<text x="1175" y="331" text-anchor="start" fill="#fecaca" font-family="Inter, Segoe UI, Arial, sans-serif" font-size="14" font-weight="500">provider route changes</text>
<text x="1150" y="379" text-anchor="start" fill="#fb3b64" font-family="Inter, Segoe UI, Arial, sans-serif" font-size="18" font-weight="800">-</text>
<text x="1175" y="379" text-anchor="start" fill="#fecaca" font-family="Inter, Segoe UI, Arial, sans-serif" font-size="14" font-weight="500">runtime blocking</text>
<text x="1150" y="427" text-anchor="start" fill="#fb3b64" font-family="Inter, Segoe UI, Arial, sans-serif" font-size="18" font-weight="800">-</text>
<text x="1175" y="427" text-anchor="start" fill="#fecaca" font-family="Inter, Segoe UI, Arial, sans-serif" font-size="14" font-weight="500">public posts</text>
<text x="1150" y="475" text-anchor="start" fill="#fb3b64" font-family="Inter, Segoe UI, Arial, sans-serif" font-size="18" font-weight="800">-</text>
<text x="1175" y="475" text-anchor="start" fill="#fecaca" font-family="Inter, Segoe UI, Arial, sans-serif" font-size="14" font-weight="500">VPS autonomous update</text>
<text x="1150" y="523" text-anchor="start" fill="#fb3b64" font-family="Inter, Segoe UI, Arial, sans-serif" font-size="18" font-weight="800">-</text>
<text x="1175" y="523" text-anchor="start" fill="#fecaca" font-family="Inter, Segoe UI, Arial, sans-serif" font-size="14" font-weight="500">agent self-review</text>
<text x="1150" y="571" text-anchor="start" fill="#fb3b64" font-family="Inter, Segoe UI, Arial, sans-serif" font-size="18" font-weight="800">-</text>
<text x="1175" y="571" text-anchor="start" fill="#fecaca" font-family="Inter, Segoe UI, Arial, sans-serif" font-size="14" font-weight="500">auto replay from dirty telemetry</text>
<text x="1150" y="619" text-anchor="start" fill="#fb3b64" font-family="Inter, Segoe UI, Arial, sans-serif" font-size="18" font-weight="800">-</text>
<text x="1175" y="619" text-anchor="start" fill="#fecaca" font-family="Inter, Segoe UI, Arial, sans-serif" font-size="14" font-weight="500">LLM-owned route / winner</text>
<g>
<rect x="330" y="650" width="500" height="250" rx="2" fill="rgba(15,27,45,0.56)" stroke="#94a3b8" stroke-width="1.2" opacity="0.95"/>
<text x="348" y="674" text-anchor="start" fill="#94a3b8" font-family="Inter, Segoe UI, Arial, sans-serif" font-size="15" font-weight="800" letter-spacing="1.2">L0 SENSOR CONTRACT - do not trust unnamed signals</text>
</g>
<g>
<rect x="385" y="705" width="390" height="58" rx="4" fill="#151d2b" stroke="#94a3b8" stroke-width="1.5" opacity="1"/>
<text x="580" y="735" text-anchor="middle" fill="#f8fafc" font-family="Inter, Segoe UI, Arial, sans-serif" font-size="15" font-weight="750">Schema lock</text>
<text x="580" y="759" text-anchor="middle" fill="#9ca3af" font-family="Inter, Segoe UI, Arial, sans-serif" font-size="13" font-weight="500" font-style="italic">record_kind + signal_origin required</text>
</g>
<g>
<rect x="385" y="790" width="390" height="58" rx="4" fill="#151d2b" stroke="#94a3b8" stroke-width="1.5" opacity="1"/>
<text x="580" y="820" text-anchor="middle" fill="#f8fafc" font-family="Inter, Segoe UI, Arial, sans-serif" font-size="15" font-weight="750">Redaction boundary</text>
<text x="580" y="844" text-anchor="middle" fill="#9ca3af" font-family="Inter, Segoe UI, Arial, sans-serif" font-size="13" font-weight="500" font-style="italic">no raw prompt / token / tool args in repo</text>
</g>
<line x1="580" y1="763" x2="580" y2="790" stroke="#53657f" stroke-width="1.8" marker-end="url(#arrow)"/>
<g>
<rect x="330" y="960" width="500" height="290" rx="2" fill="rgba(15,27,45,0.56)" stroke="#38bdf8" stroke-width="1.2" opacity="0.95"/>
<text x="348" y="984" text-anchor="start" fill="#38bdf8" font-family="Inter, Segoe UI, Arial, sans-serif" font-size="15" font-weight="800" letter-spacing="1.2">L1 EVIDENCE DISTILLATION - windows into controllable signals</text>
</g>
<g>
<rect x="385" y="1018" width="390" height="58" rx="4" fill="#0b2a45" stroke="#38bdf8" stroke-width="1.5" opacity="1"/>
<text x="580" y="1048" text-anchor="middle" fill="#f8fafc" font-family="Inter, Segoe UI, Arial, sans-serif" font-size="15" font-weight="750">Window distiller</text>
<text x="580" y="1072" text-anchor="middle" fill="#9ca3af" font-family="Inter, Segoe UI, Arial, sans-serif" font-size="13" font-weight="500" font-style="italic">compress context entropy</text>
</g>
<g>
<rect x="385" y="1102" width="390" height="58" rx="4" fill="#0b2a45" stroke="#38bdf8" stroke-width="1.5" opacity="1"/>
<text x="580" y="1132" text-anchor="middle" fill="#f8fafc" font-family="Inter, Segoe UI, Arial, sans-serif" font-size="15" font-weight="750">Route vocabulary</text>
<text x="580" y="1156" text-anchor="middle" fill="#9ca3af" font-family="Inter, Segoe UI, Arial, sans-serif" font-size="13" font-weight="500" font-style="italic">memory / skill / case / policy / damping</text>
</g>
<g>
<rect x="385" y="1186" width="390" height="58" rx="4" fill="#0b2a45" stroke="#38bdf8" stroke-width="1.5" opacity="1"/>
<text x="580" y="1216" text-anchor="middle" fill="#f8fafc" font-family="Inter, Segoe UI, Arial, sans-serif" font-size="15" font-weight="750">Candidate gates</text>
<text x="580" y="1240" text-anchor="middle" fill="#9ca3af" font-family="Inter, Segoe UI, Arial, sans-serif" font-size="13" font-weight="500" font-style="italic">minimal L3 / preflight / repair ticket</text>
</g>
<line x1="580" y1="1076" x2="580" y2="1102" stroke="#38bdf8" stroke-width="1.8" marker-end="url(#arrowBlue)"/>
<line x1="580" y1="1160" x2="580" y2="1186" stroke="#38bdf8" stroke-width="1.8" marker-end="url(#arrowBlue)"/>
<ellipse cx="580" cy="1378" rx="310" ry="78" fill="url(#gateGlow)"/>
<g>
<rect x="280" y="1300" width="600" height="156" rx="4" fill="#351024" stroke="#fb3b64" stroke-width="2.2" opacity="1"/>
<text x="580" y="1330" text-anchor="middle" fill="#f8fafc" font-family="Inter, Segoe UI, Arial, sans-serif" font-size="20" font-weight="750">MEASUREMENT CROSS-CHECK</text>
<text x="580" y="1354" text-anchor="middle" fill="#9ca3af" font-family="Inter, Segoe UI, Arial, sans-serif" font-size="14" font-weight="500" font-style="italic">candidate evidence + action monitor + model I/O verdict</text>
<text x="580" y="1373" text-anchor="middle" fill="#9ca3af" font-family="Inter, Segoe UI, Arial, sans-serif" font-size="14" font-weight="500" font-style="italic">checks measurement quality, not candidate quality</text>
<text x="580" y="1392" text-anchor="middle" fill="#9ca3af" font-family="Inter, Segoe UI, Arial, sans-serif" font-size="14" font-weight="500" font-style="italic">dirty / missing evidence -&gt; observability only</text>
</g>
<g>
<rect x="395" y="1486" width="370" height="58" rx="4" fill="#351024" stroke="#fb3b64" stroke-width="1.5" opacity="1"/>
<text x="580" y="1516" text-anchor="middle" fill="#f8fafc" font-family="Inter, Segoe UI, Arial, sans-serif" font-size="15" font-weight="750">measurement_quality_gate</text>
<text x="580" y="1540" text-anchor="middle" fill="#9ca3af" font-family="Inter, Segoe UI, Arial, sans-serif" font-size="12" font-weight="500" font-style="italic">clean / input / behavior / compound / insufficient</text>
</g>
<g>
<rect x="395" y="1570" width="370" height="58" rx="4" fill="#351024" stroke="#fb3b64" stroke-width="1.5" opacity="1" stroke-dasharray="7 6"/>
<text x="580" y="1600" text-anchor="middle" fill="#f8fafc" font-family="Inter, Segoe UI, Arial, sans-serif" font-size="15" font-weight="750">gate-of-gate bias monitor</text>
<text x="580" y="1624" text-anchor="middle" fill="#9ca3af" font-family="Inter, Segoe UI, Arial, sans-serif" font-size="13" font-weight="500" font-style="italic">per-candidate skew / emit-only</text>
</g>
<g>
<rect x="170" y="1685" width="820" height="150" rx="2" fill="rgba(15,27,45,0.56)" stroke="#a78bfa" stroke-width="1.2" opacity="0.95"/>
<text x="188" y="1709" text-anchor="start" fill="#a78bfa" font-family="Inter, Segoe UI, Arial, sans-serif" font-size="15" font-weight="800" letter-spacing="1.2">L2 VALIDATION - fail closed before judging the candidate</text>
</g>
<g>
<rect x="205" y="1735" width="210" height="58" rx="4" fill="#22183a" stroke="#a78bfa" stroke-width="1.5" opacity="1"/>
<text x="310" y="1765" text-anchor="middle" fill="#f8fafc" font-family="Inter, Segoe UI, Arial, sans-serif" font-size="15" font-weight="750">Clean?</text>
<text x="310" y="1789" text-anchor="middle" fill="#9ca3af" font-family="Inter, Segoe UI, Arial, sans-serif" font-size="13" font-weight="500" font-style="italic">or insufficient</text>
</g>
<g>
<rect x="475" y="1735" width="210" height="58" rx="4" fill="#22183a" stroke="#a78bfa" stroke-width="1.5" opacity="1"/>
<text x="580" y="1765" text-anchor="middle" fill="#f8fafc" font-family="Inter, Segoe UI, Arial, sans-serif" font-size="15" font-weight="750">Held-out replay</text>
<text x="580" y="1789" text-anchor="middle" fill="#9ca3af" font-family="Inter, Segoe UI, Arial, sans-serif" font-size="13" font-weight="500" font-style="italic">deterministic</text>
</g>
<g>
<rect x="745" y="1735" width="210" height="58" rx="4" fill="#22183a" stroke="#a78bfa" stroke-width="1.5" opacity="1"/>
<text x="850" y="1765" text-anchor="middle" fill="#f8fafc" font-family="Inter, Segoe UI, Arial, sans-serif" font-size="15" font-weight="750">Tournament gate</text>
<text x="850" y="1789" text-anchor="middle" fill="#9ca3af" font-family="Inter, Segoe UI, Arial, sans-serif" font-size="13" font-weight="500" font-style="italic">strategy_fit + value</text>
</g>
<line x1="415" y1="1764" x2="475" y2="1764" stroke="#a78bfa" stroke-width="1.8" marker-end="url(#arrow)"/>
<line x1="685" y1="1764" x2="745" y2="1764" stroke="#a78bfa" stroke-width="1.8" marker-end="url(#arrow)"/>
<g>
<rect x="170" y="1890" width="820" height="150" rx="2" fill="rgba(15,27,45,0.56)" stroke="#f59e0b" stroke-width="1.2" opacity="0.95"/>
<text x="188" y="1914" text-anchor="start" fill="#f59e0b" font-family="Inter, Segoe UI, Arial, sans-serif" font-size="15" font-weight="800" letter-spacing="1.2">L3 ROUTE FEEDBACK - safe pressure, no self-rewrite</text>
</g>
<g>
<rect x="205" y="1940" width="210" height="58" rx="4" fill="#2c1d08" stroke="#f59e0b" stroke-width="1.5" opacity="1"/>
<text x="310" y="1970" text-anchor="middle" fill="#f8fafc" font-family="Inter, Segoe UI, Arial, sans-serif" font-size="15" font-weight="750">Route decision</text>
<text x="310" y="1994" text-anchor="middle" fill="#9ca3af" font-family="Inter, Segoe UI, Arial, sans-serif" font-size="13" font-weight="500" font-style="italic">memory / skill / case</text>
</g>
<g>
<rect x="475" y="1940" width="210" height="58" rx="4" fill="#2c1d08" stroke="#f59e0b" stroke-width="1.5" opacity="1"/>
<text x="580" y="1970" text-anchor="middle" fill="#f8fafc" font-family="Inter, Segoe UI, Arial, sans-serif" font-size="15" font-weight="750">Work-order pressure</text>
<text x="580" y="1994" text-anchor="middle" fill="#9ca3af" font-family="Inter, Segoe UI, Arial, sans-serif" font-size="13" font-weight="500" font-style="italic">repair / variants</text>
</g>
<g>
<rect x="745" y="1940" width="210" height="58" rx="4" fill="#2c1d08" stroke="#f59e0b" stroke-width="1.5" opacity="1"/>
<text x="850" y="1970" text-anchor="middle" fill="#f8fafc" font-family="Inter, Segoe UI, Arial, sans-serif" font-size="15" font-weight="750">Outer loop</text>
<text x="850" y="1994" text-anchor="middle" fill="#9ca3af" font-family="Inter, Segoe UI, Arial, sans-serif" font-size="13" font-weight="500" font-style="italic">setpoints / damping</text>
</g>
<line x1="415" y1="1969" x2="475" y2="1969" stroke="#f59e0b" stroke-width="1.8" marker-end="url(#arrowAmber)"/>
<line x1="685" y1="1969" x2="745" y2="1969" stroke="#f59e0b" stroke-width="1.8" marker-end="url(#arrowAmber)"/>
<g>
<rect x="1110" y="850" width="310" height="265" rx="2" fill="rgba(43,22,8,0.72)" stroke="#fb923c" stroke-width="1.2" opacity="0.95"/>
<text x="1128" y="874" text-anchor="start" fill="#fb923c" font-family="Inter, Segoe UI, Arial, sans-serif" font-size="15" font-weight="800" letter-spacing="1.2">L4 HUMAN DECISION</text>
</g>
<g>
<rect x="1140" y="905" width="250" height="54" rx="4" fill="#2b1608" stroke="#fb923c" stroke-width="1.5" opacity="1"/>
<text x="1265" y="935" text-anchor="middle" fill="#f8fafc" font-family="Inter, Segoe UI, Arial, sans-serif" font-size="14" font-weight="750">Draft / repair ticket</text>
<text x="1265" y="959" text-anchor="middle" fill="#9ca3af" font-family="Inter, Segoe UI, Arial, sans-serif" font-size="12" font-weight="500" font-style="italic">local artifact only</text>
</g>
<g>
<rect x="1140" y="986" width="250" height="54" rx="4" fill="#2b1608" stroke="#fb923c" stroke-width="1.5" opacity="1"/>
<text x="1265" y="1016" text-anchor="middle" fill="#f8fafc" font-family="Inter, Segoe UI, Arial, sans-serif" font-size="14" font-weight="750">Human boundary</text>
<text x="1265" y="1040" text-anchor="middle" fill="#9ca3af" font-family="Inter, Segoe UI, Arial, sans-serif" font-size="12" font-weight="500" font-style="italic">approve / hold / reject</text>
</g>
<g>
<rect x="1140" y="1067" width="250" height="54" rx="4" fill="#2b1608" stroke="#fb923c" stroke-width="1.5" opacity="1"/>
<text x="1265" y="1097" text-anchor="middle" fill="#f8fafc" font-family="Inter, Segoe UI, Arial, sans-serif" font-size="14" font-weight="750">Post-deploy measure</text>
<text x="1265" y="1121" text-anchor="middle" fill="#9ca3af" font-family="Inter, Segoe UI, Arial, sans-serif" font-size="12" font-weight="500" font-style="italic">positive / negative / null</text>
</g>
<line x1="1265" y1="959" x2="1265" y2="986" stroke="#fb923c" stroke-width="1.8" marker-end="url(#arrow)"/>
<line x1="1265" y1="1040" x2="1265" y2="1067" stroke="#fb923c" stroke-width="1.8" marker-end="url(#arrow)"/>
<g>
<rect x="1110" y="1180" width="310" height="150" rx="2" fill="rgba(8,39,29,0.74)" stroke="#10b981" stroke-width="1.2" opacity="0.95"/>
<text x="1128" y="1204" text-anchor="start" fill="#10b981" font-family="Inter, Segoe UI, Arial, sans-serif" font-size="15" font-weight="800" letter-spacing="1.2">OUTPUT STREAMS</text>
</g>
<g>
<rect x="1135" y="1226" width="260" height="36" rx="4" fill="#08271d" stroke="#10b981" stroke-width="1.5" opacity="1"/>
<text x="1265" y="1250" text-anchor="middle" fill="#f8fafc" font-family="Inter, Segoe UI, Arial, sans-serif" font-size="13" font-weight="750">observability_stream</text>

</g>
<g>
<rect x="1135" y="1274" width="260" height="36" rx="4" fill="#08271d" stroke="#10b981" stroke-width="1.5" opacity="1"/>
<text x="1265" y="1298" text-anchor="middle" fill="#f8fafc" font-family="Inter, Segoe UI, Arial, sans-serif" font-size="13" font-weight="750">work_order_stream</text>

</g>
<g>
<rect x="1135" y="1322" width="260" height="36" rx="4" fill="#08271d" stroke="#10b981" stroke-width="1.5" opacity="1"/>
<text x="1265" y="1346" text-anchor="middle" fill="#f8fafc" font-family="Inter, Segoe UI, Arial, sans-serif" font-size="13" font-weight="750">evolution_candidates</text>

</g>
<line x1="580" y1="590" x2="580" y2="650" stroke="#94a3b8" stroke-width="1.8" marker-end="url(#arrow)"/>
<line x1="580" y1="900" x2="580" y2="960" stroke="#38bdf8" stroke-width="1.8" marker-end="url(#arrowBlue)"/>
<line x1="580" y1="1250" x2="580" y2="1300" stroke="#fb3b64" stroke-width="1.8" marker-end="url(#arrowRed)"/>
<line x1="580" y1="1456" x2="580" y2="1486" stroke="#fb3b64" stroke-width="1.8" marker-end="url(#arrowRed)"/>
<line x1="580" y1="1628" x2="580" y2="1685" stroke="#a78bfa" stroke-width="1.8" marker-end="url(#arrow)"/>
<line x1="955" y1="1764" x2="990" y2="1764" stroke="#a78bfa" stroke-width="1.8" marker-end="url(#arrow)"/>
<path d="M 990 1764 C 1090 1640, 1035 930, 1140 932" fill="none" stroke="#fb923c" stroke-width="1.6" marker-end="url(#arrow)"/>
<path d="M 955 1969 C 1035 1810, 1035 1292, 1135 1292" fill="none" stroke="#10b981" stroke-width="1.6" marker-end="url(#arrow)"/>
<path d="M 955 1764 C 1035 1600, 1035 1340, 1135 1340" fill="none" stroke="#10b981" stroke-width="1.6" stroke-dasharray="7 7" marker-end="url(#arrow)"/>
<path d="M 1390 1094 C 1500 1320, 1320 1780, 955 1969" fill="none" stroke="#f59e0b" stroke-width="1.6" stroke-dasharray="7 7" marker-end="url(#arrowAmber)"/>
<path d="M 290 538 C 250 770, 250 1190, 280 1378" fill="none" stroke="#38bdf8" stroke-width="1.6" stroke-dasharray="7 7" marker-end="url(#arrowBlue)"/>
<path d="M 765 477 C 930 780, 930 1180, 880 1378" fill="none" stroke="#a78bfa" stroke-width="1.6" stroke-dasharray="7 7" marker-end="url(#arrow)"/>
<path d="M 580 1544 C 900 1544, 1015 1378, 1110 640" fill="none" stroke="#fb3b64" stroke-width="1.6" stroke-dasharray="7 7" marker-end="url(#arrowRed)"/>
<text x="875" y="1510" text-anchor="start" fill="#fb3b64" font-family="Inter, Segoe UI, Arial, sans-serif" font-size="13" font-weight="500" font-style="italic">verdict only; cannot trigger replay</text>
<text x="1020" y="1882" text-anchor="start" fill="#f59e0b" font-family="Inter, Segoe UI, Arial, sans-serif" font-size="13" font-weight="500" font-style="italic">L3 feedback tightens routes and repair prompts</text>
<rect x="60" y="2125" width="1380" height="34" rx="6" fill="#111f34" stroke="#38bdf8" stroke-width="1.4" opacity="0.8"/>
<text x="750" y="2148" text-anchor="middle" fill="#9ca3af" font-family="Inter, Segoe UI, Arial, sans-serif" font-size="14" font-weight="700" font-style="italic">no measurement -&gt; no evolution claim    ·    no clean measurement -&gt; no candidate judgment    ·    no human boundary -&gt; no live authority</text>
</svg>
